<mxfile host="app.diagrams.net" modified="2024-05-05T04:21:20.732Z" agent="Mozilla/5.0 (Windows NT 10.0; Win64; x64; rv:125.0) Gecko/20100101 Firefox/125.0" etag="0vfWqM2qtG5ZdwtCTzmL" version="24.3.1" type="device">
  <diagram name="Page-1" id="4Hgk2k7ckVEHAKk-2MRl">
    <mxGraphModel dx="1485" dy="656" grid="1" gridSize="10" guides="1" tooltips="1" connect="1" arrows="1" fold="1" page="1" pageScale="1" pageWidth="1169" pageHeight="827" math="0" shadow="0">
      <root>
        <mxCell id="0" />
        <mxCell id="1" parent="0" />
        <mxCell id="yaJ4Wb95gQdLDeX0nJdi-1" value="game" style="shape=folder;fontStyle=1;tabWidth=40;tabHeight=20;tabPosition=left;html=1;boundedLbl=1;labelInHeader=1;container=1;collapsible=0;recursiveResize=0;whiteSpace=wrap;" vertex="1" parent="1">
          <mxGeometry x="10" y="10" width="530" height="330" as="geometry" />
        </mxCell>
        <mxCell id="yaJ4Wb95gQdLDeX0nJdi-8" value="actors" style="shape=folder;fontStyle=1;tabWidth=40;tabHeight=20;tabPosition=left;html=1;boundedLbl=1;labelInHeader=1;container=1;collapsible=0;recursiveResize=0;whiteSpace=wrap;" vertex="1" parent="yaJ4Wb95gQdLDeX0nJdi-1">
          <mxGeometry x="10" y="30" width="360" height="110" as="geometry" />
        </mxCell>
        <mxCell id="yaJ4Wb95gQdLDeX0nJdi-9" value="AlienBug" style="html=1;whiteSpace=wrap;" vertex="1" parent="yaJ4Wb95gQdLDeX0nJdi-8">
          <mxGeometry width="100" height="40" relative="1" as="geometry">
            <mxPoint x="130" y="50" as="offset" />
          </mxGeometry>
        </mxCell>
        <mxCell id="yaJ4Wb95gQdLDeX0nJdi-10" value="Monster" style="html=1;whiteSpace=wrap;" vertex="1" parent="yaJ4Wb95gQdLDeX0nJdi-8">
          <mxGeometry x="250" y="50" width="100" height="40" as="geometry" />
        </mxCell>
        <mxCell id="yaJ4Wb95gQdLDeX0nJdi-11" value="SuspiciousAstronaut" style="html=1;whiteSpace=wrap;" vertex="1" parent="yaJ4Wb95gQdLDeX0nJdi-8">
          <mxGeometry x="10" y="50" width="100" height="40" as="geometry" />
        </mxCell>
        <mxCell id="yaJ4Wb95gQdLDeX0nJdi-15" style="edgeStyle=orthogonalEdgeStyle;rounded=0;orthogonalLoop=1;jettySize=auto;html=1;entryX=0.5;entryY=0;entryDx=0;entryDy=0;endArrow=open;endFill=0;" edge="1" parent="yaJ4Wb95gQdLDeX0nJdi-8" source="yaJ4Wb95gQdLDeX0nJdi-12" target="yaJ4Wb95gQdLDeX0nJdi-10">
          <mxGeometry relative="1" as="geometry" />
        </mxCell>
        <mxCell id="yaJ4Wb95gQdLDeX0nJdi-38" value="extends" style="edgeLabel;html=1;align=center;verticalAlign=middle;resizable=0;points=[];" vertex="1" connectable="0" parent="yaJ4Wb95gQdLDeX0nJdi-15">
          <mxGeometry x="-0.2138" y="1" relative="1" as="geometry">
            <mxPoint as="offset" />
          </mxGeometry>
        </mxCell>
        <mxCell id="yaJ4Wb95gQdLDeX0nJdi-12" value="" style="shape=waypoint;sketch=0;fillStyle=solid;size=6;pointerEvents=1;points=[];fillColor=none;resizable=0;rotatable=0;perimeter=centerPerimeter;snapToPoint=1;" vertex="1" parent="yaJ4Wb95gQdLDeX0nJdi-8">
          <mxGeometry x="170" y="20" width="20" height="20" as="geometry" />
        </mxCell>
        <mxCell id="yaJ4Wb95gQdLDeX0nJdi-13" style="edgeStyle=orthogonalEdgeStyle;rounded=0;orthogonalLoop=1;jettySize=auto;html=1;exitX=0.5;exitY=0;exitDx=0;exitDy=0;entryX=0.494;entryY=0.656;entryDx=0;entryDy=0;entryPerimeter=0;endArrow=none;endFill=0;" edge="1" parent="yaJ4Wb95gQdLDeX0nJdi-8" source="yaJ4Wb95gQdLDeX0nJdi-11" target="yaJ4Wb95gQdLDeX0nJdi-12">
          <mxGeometry relative="1" as="geometry">
            <Array as="points">
              <mxPoint x="60" y="30" />
            </Array>
          </mxGeometry>
        </mxCell>
        <mxCell id="yaJ4Wb95gQdLDeX0nJdi-14" style="edgeStyle=orthogonalEdgeStyle;rounded=0;orthogonalLoop=1;jettySize=auto;html=1;exitX=0.5;exitY=0;exitDx=0;exitDy=0;endArrow=none;endFill=0;entryX=0.6;entryY=0.55;entryDx=0;entryDy=0;entryPerimeter=0;" edge="1" parent="yaJ4Wb95gQdLDeX0nJdi-8" source="yaJ4Wb95gQdLDeX0nJdi-9" target="yaJ4Wb95gQdLDeX0nJdi-12">
          <mxGeometry relative="1" as="geometry">
            <mxPoint x="120" y="80" as="targetPoint" />
            <Array as="points">
              <mxPoint x="180" y="40" />
              <mxPoint x="180" y="40" />
            </Array>
          </mxGeometry>
        </mxCell>
        <mxCell id="yaJ4Wb95gQdLDeX0nJdi-17" value="behaviours" style="shape=folder;fontStyle=1;tabWidth=80;tabHeight=20;tabPosition=left;html=1;boundedLbl=1;labelInHeader=1;container=1;collapsible=0;recursiveResize=0;whiteSpace=wrap;" vertex="1" parent="yaJ4Wb95gQdLDeX0nJdi-1">
          <mxGeometry x="10" y="200" width="480" height="120" as="geometry" />
        </mxCell>
        <mxCell id="yaJ4Wb95gQdLDeX0nJdi-31" style="edgeStyle=orthogonalEdgeStyle;rounded=0;orthogonalLoop=1;jettySize=auto;html=1;entryX=0.5;entryY=1;entryDx=0;entryDy=0;endArrow=none;endFill=0;" edge="1" parent="yaJ4Wb95gQdLDeX0nJdi-17" source="yaJ4Wb95gQdLDeX0nJdi-28" target="yaJ4Wb95gQdLDeX0nJdi-19">
          <mxGeometry relative="1" as="geometry">
            <Array as="points">
              <mxPoint x="180" y="100" />
            </Array>
          </mxGeometry>
        </mxCell>
        <mxCell id="yaJ4Wb95gQdLDeX0nJdi-32" style="edgeStyle=orthogonalEdgeStyle;rounded=0;orthogonalLoop=1;jettySize=auto;html=1;entryX=0.5;entryY=1;entryDx=0;entryDy=0;endArrow=none;endFill=0;" edge="1" parent="yaJ4Wb95gQdLDeX0nJdi-17" source="yaJ4Wb95gQdLDeX0nJdi-28" target="yaJ4Wb95gQdLDeX0nJdi-20">
          <mxGeometry relative="1" as="geometry">
            <Array as="points">
              <mxPoint x="300" y="100" />
            </Array>
          </mxGeometry>
        </mxCell>
        <mxCell id="yaJ4Wb95gQdLDeX0nJdi-30" style="edgeStyle=orthogonalEdgeStyle;rounded=0;orthogonalLoop=1;jettySize=auto;html=1;entryX=0.5;entryY=1;entryDx=0;entryDy=0;endArrow=none;endFill=0;" edge="1" parent="yaJ4Wb95gQdLDeX0nJdi-17" source="yaJ4Wb95gQdLDeX0nJdi-28" target="yaJ4Wb95gQdLDeX0nJdi-18">
          <mxGeometry relative="1" as="geometry">
            <Array as="points">
              <mxPoint x="300" y="100" />
              <mxPoint x="300" y="100" />
            </Array>
          </mxGeometry>
        </mxCell>
        <mxCell id="yaJ4Wb95gQdLDeX0nJdi-56" value="AttackBehaviour" style="html=1;whiteSpace=wrap;" vertex="1" parent="yaJ4Wb95gQdLDeX0nJdi-17">
          <mxGeometry x="10" y="50" width="100" height="40" as="geometry" />
        </mxCell>
        <mxCell id="yaJ4Wb95gQdLDeX0nJdi-18" value="WanderingBehaviour" style="html=1;whiteSpace=wrap;" vertex="1" parent="yaJ4Wb95gQdLDeX0nJdi-17">
          <mxGeometry width="100" height="40" relative="1" as="geometry">
            <mxPoint x="370" y="50" as="offset" />
          </mxGeometry>
        </mxCell>
        <mxCell id="yaJ4Wb95gQdLDeX0nJdi-20" value="FollowBehaviour" style="html=1;whiteSpace=wrap;" vertex="1" parent="yaJ4Wb95gQdLDeX0nJdi-17">
          <mxGeometry x="249.9999999999999" y="50" width="100" height="40" as="geometry" />
        </mxCell>
        <mxCell id="yaJ4Wb95gQdLDeX0nJdi-19" value="&lt;div&gt;PickUpBehaviour&lt;/div&gt;" style="html=1;whiteSpace=wrap;" vertex="1" parent="yaJ4Wb95gQdLDeX0nJdi-17">
          <mxGeometry x="129.9999999999999" y="50" width="100" height="40" as="geometry" />
        </mxCell>
        <mxCell id="yaJ4Wb95gQdLDeX0nJdi-33" style="edgeStyle=orthogonalEdgeStyle;rounded=0;orthogonalLoop=1;jettySize=auto;html=1;entryX=0;entryY=0.5;entryDx=0;entryDy=0;endArrow=open;endFill=0;" edge="1" parent="yaJ4Wb95gQdLDeX0nJdi-17" source="yaJ4Wb95gQdLDeX0nJdi-28">
          <mxGeometry relative="1" as="geometry">
            <mxPoint x="740" y="-30" as="targetPoint" />
            <Array as="points">
              <mxPoint x="570" y="100" />
              <mxPoint x="570" y="-30" />
            </Array>
          </mxGeometry>
        </mxCell>
        <mxCell id="yaJ4Wb95gQdLDeX0nJdi-28" value="" style="shape=waypoint;sketch=0;fillStyle=solid;size=6;pointerEvents=1;points=[];fillColor=none;resizable=0;rotatable=0;perimeter=centerPerimeter;snapToPoint=1;" vertex="1" parent="yaJ4Wb95gQdLDeX0nJdi-17">
          <mxGeometry x="410" y="90" width="20" height="20" as="geometry" />
        </mxCell>
        <mxCell id="yaJ4Wb95gQdLDeX0nJdi-36" style="edgeStyle=orthogonalEdgeStyle;rounded=0;orthogonalLoop=1;jettySize=auto;html=1;exitX=0.5;exitY=1;exitDx=0;exitDy=0;entryX=0.5;entryY=0;entryDx=0;entryDy=0;endArrow=open;endFill=0;" edge="1" parent="yaJ4Wb95gQdLDeX0nJdi-1" source="yaJ4Wb95gQdLDeX0nJdi-10" target="yaJ4Wb95gQdLDeX0nJdi-18">
          <mxGeometry relative="1" as="geometry" />
        </mxCell>
        <mxCell id="yaJ4Wb95gQdLDeX0nJdi-37" value="has" style="edgeLabel;html=1;align=center;verticalAlign=middle;resizable=0;points=[];" vertex="1" connectable="0" parent="yaJ4Wb95gQdLDeX0nJdi-36">
          <mxGeometry x="-0.1261" relative="1" as="geometry">
            <mxPoint as="offset" />
          </mxGeometry>
        </mxCell>
        <mxCell id="yaJ4Wb95gQdLDeX0nJdi-44" style="edgeStyle=orthogonalEdgeStyle;rounded=0;orthogonalLoop=1;jettySize=auto;html=1;entryX=0.5;entryY=0;entryDx=0;entryDy=0;endArrow=open;endFill=0;" edge="1" parent="yaJ4Wb95gQdLDeX0nJdi-1" source="yaJ4Wb95gQdLDeX0nJdi-41" target="yaJ4Wb95gQdLDeX0nJdi-20">
          <mxGeometry relative="1" as="geometry" />
        </mxCell>
        <mxCell id="yaJ4Wb95gQdLDeX0nJdi-45" style="edgeStyle=orthogonalEdgeStyle;rounded=0;orthogonalLoop=1;jettySize=auto;html=1;entryX=0.5;entryY=0;entryDx=0;entryDy=0;endArrow=open;endFill=0;" edge="1" parent="yaJ4Wb95gQdLDeX0nJdi-1" source="yaJ4Wb95gQdLDeX0nJdi-41" target="yaJ4Wb95gQdLDeX0nJdi-19">
          <mxGeometry relative="1" as="geometry">
            <Array as="points">
              <mxPoint x="190" y="240" />
              <mxPoint x="190" y="240" />
            </Array>
          </mxGeometry>
        </mxCell>
        <mxCell id="yaJ4Wb95gQdLDeX0nJdi-41" value="" style="shape=waypoint;sketch=0;fillStyle=solid;size=6;pointerEvents=1;points=[];fillColor=none;resizable=0;rotatable=0;perimeter=centerPerimeter;snapToPoint=1;" vertex="1" parent="yaJ4Wb95gQdLDeX0nJdi-1">
          <mxGeometry x="180" y="220" width="20" height="20" as="geometry" />
        </mxCell>
        <mxCell id="yaJ4Wb95gQdLDeX0nJdi-42" style="edgeStyle=orthogonalEdgeStyle;rounded=0;orthogonalLoop=1;jettySize=auto;html=1;exitX=0.5;exitY=1;exitDx=0;exitDy=0;entryX=0.381;entryY=0.419;entryDx=0;entryDy=0;entryPerimeter=0;endArrow=none;endFill=0;" edge="1" parent="yaJ4Wb95gQdLDeX0nJdi-1" source="yaJ4Wb95gQdLDeX0nJdi-9" target="yaJ4Wb95gQdLDeX0nJdi-41">
          <mxGeometry relative="1" as="geometry" />
        </mxCell>
        <mxCell id="yaJ4Wb95gQdLDeX0nJdi-43" value="has" style="edgeLabel;html=1;align=center;verticalAlign=middle;resizable=0;points=[];" vertex="1" connectable="0" parent="yaJ4Wb95gQdLDeX0nJdi-42">
          <mxGeometry x="0.0023" relative="1" as="geometry">
            <mxPoint as="offset" />
          </mxGeometry>
        </mxCell>
        <mxCell id="yaJ4Wb95gQdLDeX0nJdi-57" style="edgeStyle=orthogonalEdgeStyle;rounded=0;orthogonalLoop=1;jettySize=auto;html=1;exitX=1;exitY=1;exitDx=0;exitDy=0;entryX=1;entryY=0;entryDx=0;entryDy=0;endArrow=open;endFill=0;" edge="1" parent="yaJ4Wb95gQdLDeX0nJdi-1" source="yaJ4Wb95gQdLDeX0nJdi-11" target="yaJ4Wb95gQdLDeX0nJdi-56">
          <mxGeometry relative="1" as="geometry" />
        </mxCell>
        <mxCell id="yaJ4Wb95gQdLDeX0nJdi-58" value="has" style="edgeLabel;html=1;align=center;verticalAlign=middle;resizable=0;points=[];" vertex="1" connectable="0" parent="yaJ4Wb95gQdLDeX0nJdi-57">
          <mxGeometry x="-0.2" relative="1" as="geometry">
            <mxPoint as="offset" />
          </mxGeometry>
        </mxCell>
        <mxCell id="yaJ4Wb95gQdLDeX0nJdi-3" value="edu.monash.fit2099.engine" style="shape=folder;fontStyle=1;tabWidth=160;tabHeight=20;tabPosition=left;html=1;boundedLbl=1;labelInHeader=1;container=1;collapsible=0;recursiveResize=0;whiteSpace=wrap;" vertex="1" parent="1">
          <mxGeometry x="640" y="10" width="330" height="350" as="geometry" />
        </mxCell>
        <mxCell id="yaJ4Wb95gQdLDeX0nJdi-5" value="actors" style="shape=folder;fontStyle=1;tabWidth=40;tabHeight=20;tabPosition=left;html=1;boundedLbl=1;labelInHeader=1;container=1;collapsible=0;recursiveResize=0;whiteSpace=wrap;" vertex="1" parent="yaJ4Wb95gQdLDeX0nJdi-3">
          <mxGeometry x="10" y="30" width="120" height="80" as="geometry" />
        </mxCell>
        <mxCell id="yaJ4Wb95gQdLDeX0nJdi-6" value="&lt;div&gt;Actor&lt;/div&gt;" style="html=1;whiteSpace=wrap;" vertex="1" parent="yaJ4Wb95gQdLDeX0nJdi-5">
          <mxGeometry width="100" height="40" relative="1" as="geometry">
            <mxPoint x="10" y="30" as="offset" />
          </mxGeometry>
        </mxCell>
        <mxCell id="yaJ4Wb95gQdLDeX0nJdi-26" value="behaviours" style="shape=folder;fontStyle=1;tabWidth=70;tabHeight=20;tabPosition=left;html=1;boundedLbl=1;labelInHeader=1;container=1;collapsible=0;recursiveResize=0;whiteSpace=wrap;" vertex="1" parent="yaJ4Wb95gQdLDeX0nJdi-3">
          <mxGeometry x="10" y="120" width="120" height="80" as="geometry" />
        </mxCell>
        <mxCell id="yaJ4Wb95gQdLDeX0nJdi-27" value="Behaviour" style="html=1;whiteSpace=wrap;" vertex="1" parent="yaJ4Wb95gQdLDeX0nJdi-26">
          <mxGeometry width="100" height="40" relative="1" as="geometry">
            <mxPoint x="10" y="30" as="offset" />
          </mxGeometry>
        </mxCell>
        <mxCell id="yaJ4Wb95gQdLDeX0nJdi-46" value="items" style="shape=folder;fontStyle=1;tabWidth=40;tabHeight=20;tabPosition=left;html=1;boundedLbl=1;labelInHeader=1;container=1;collapsible=0;recursiveResize=0;whiteSpace=wrap;" vertex="1" parent="yaJ4Wb95gQdLDeX0nJdi-3">
          <mxGeometry x="10" y="210" width="120" height="130" as="geometry" />
        </mxCell>
        <mxCell id="yaJ4Wb95gQdLDeX0nJdi-47" value="&lt;div&gt;PickUpAction&lt;br&gt;&lt;/div&gt;" style="html=1;whiteSpace=wrap;" vertex="1" parent="yaJ4Wb95gQdLDeX0nJdi-46">
          <mxGeometry width="100" height="40" relative="1" as="geometry">
            <mxPoint x="10" y="80" as="offset" />
          </mxGeometry>
        </mxCell>
        <mxCell id="yaJ4Wb95gQdLDeX0nJdi-50" value="DropAction" style="html=1;whiteSpace=wrap;" vertex="1" parent="yaJ4Wb95gQdLDeX0nJdi-46">
          <mxGeometry x="10" y="30" width="100" height="40" as="geometry" />
        </mxCell>
        <mxCell id="yaJ4Wb95gQdLDeX0nJdi-59" value="positions" style="shape=folder;fontStyle=1;tabWidth=60;tabHeight=20;tabPosition=left;html=1;boundedLbl=1;labelInHeader=1;container=1;collapsible=0;recursiveResize=0;whiteSpace=wrap;" vertex="1" parent="yaJ4Wb95gQdLDeX0nJdi-3">
          <mxGeometry x="160" y="30" width="120" height="140" as="geometry" />
        </mxCell>
        <mxCell id="yaJ4Wb95gQdLDeX0nJdi-60" value="Location" style="html=1;whiteSpace=wrap;" vertex="1" parent="yaJ4Wb95gQdLDeX0nJdi-59">
          <mxGeometry width="100" height="40" relative="1" as="geometry">
            <mxPoint x="10" y="30" as="offset" />
          </mxGeometry>
        </mxCell>
        <mxCell id="yaJ4Wb95gQdLDeX0nJdi-61" value="Exit" style="html=1;whiteSpace=wrap;" vertex="1" parent="yaJ4Wb95gQdLDeX0nJdi-59">
          <mxGeometry x="10" y="90" width="100" height="40" as="geometry" />
        </mxCell>
        <mxCell id="yaJ4Wb95gQdLDeX0nJdi-16" style="edgeStyle=orthogonalEdgeStyle;rounded=0;orthogonalLoop=1;jettySize=auto;html=1;exitX=1;exitY=0.5;exitDx=0;exitDy=0;entryX=0;entryY=0.5;entryDx=0;entryDy=0;endArrow=open;endFill=0;" edge="1" parent="1" source="yaJ4Wb95gQdLDeX0nJdi-10" target="yaJ4Wb95gQdLDeX0nJdi-6">
          <mxGeometry relative="1" as="geometry">
            <Array as="points">
              <mxPoint x="590" y="110" />
              <mxPoint x="590" y="90" />
            </Array>
          </mxGeometry>
        </mxCell>
        <mxCell id="yaJ4Wb95gQdLDeX0nJdi-39" value="extends" style="edgeLabel;html=1;align=center;verticalAlign=middle;resizable=0;points=[];" vertex="1" connectable="0" parent="yaJ4Wb95gQdLDeX0nJdi-16">
          <mxGeometry x="-0.7553" relative="1" as="geometry">
            <mxPoint as="offset" />
          </mxGeometry>
        </mxCell>
        <mxCell id="yaJ4Wb95gQdLDeX0nJdi-51" style="edgeStyle=orthogonalEdgeStyle;rounded=0;orthogonalLoop=1;jettySize=auto;html=1;exitX=0.25;exitY=1;exitDx=0;exitDy=0;entryX=0;entryY=0.5;entryDx=0;entryDy=0;dashed=1;endArrow=open;endFill=0;fillColor=#f8cecc;strokeColor=#b85450;" edge="1" parent="1" source="yaJ4Wb95gQdLDeX0nJdi-19" target="yaJ4Wb95gQdLDeX0nJdi-47">
          <mxGeometry relative="1" as="geometry">
            <Array as="points">
              <mxPoint x="175" y="320" />
            </Array>
          </mxGeometry>
        </mxCell>
        <mxCell id="yaJ4Wb95gQdLDeX0nJdi-55" value="uses" style="edgeLabel;html=1;align=center;verticalAlign=middle;resizable=0;points=[];fontColor=#EA6B66;" vertex="1" connectable="0" parent="yaJ4Wb95gQdLDeX0nJdi-51">
          <mxGeometry x="-0.8055" y="2" relative="1" as="geometry">
            <mxPoint as="offset" />
          </mxGeometry>
        </mxCell>
        <mxCell id="yaJ4Wb95gQdLDeX0nJdi-52" style="edgeStyle=orthogonalEdgeStyle;rounded=0;orthogonalLoop=1;jettySize=auto;html=1;exitX=0.75;exitY=1;exitDx=0;exitDy=0;entryX=0;entryY=0.5;entryDx=0;entryDy=0;endArrow=open;endFill=0;dashed=1;" edge="1" parent="1" source="yaJ4Wb95gQdLDeX0nJdi-10" target="yaJ4Wb95gQdLDeX0nJdi-50">
          <mxGeometry relative="1" as="geometry">
            <Array as="points">
              <mxPoint x="345" y="160" />
              <mxPoint x="580" y="160" />
              <mxPoint x="580" y="270" />
            </Array>
          </mxGeometry>
        </mxCell>
        <mxCell id="yaJ4Wb95gQdLDeX0nJdi-54" value="uses" style="edgeLabel;html=1;align=center;verticalAlign=middle;resizable=0;points=[];" vertex="1" connectable="0" parent="yaJ4Wb95gQdLDeX0nJdi-52">
          <mxGeometry x="-0.6498" y="-2" relative="1" as="geometry">
            <mxPoint x="15" y="-2" as="offset" />
          </mxGeometry>
        </mxCell>
        <mxCell id="yaJ4Wb95gQdLDeX0nJdi-66" style="edgeStyle=orthogonalEdgeStyle;rounded=0;orthogonalLoop=1;jettySize=auto;html=1;endArrow=open;endFill=0;dashed=1;" edge="1" parent="1" source="yaJ4Wb95gQdLDeX0nJdi-67" target="yaJ4Wb95gQdLDeX0nJdi-61">
          <mxGeometry relative="1" as="geometry">
            <Array as="points">
              <mxPoint x="860" y="200" />
              <mxPoint x="860" y="200" />
            </Array>
          </mxGeometry>
        </mxCell>
        <mxCell id="yaJ4Wb95gQdLDeX0nJdi-63" value="" style="shape=waypoint;sketch=0;fillStyle=solid;size=6;pointerEvents=1;points=[];fillColor=none;resizable=0;rotatable=0;perimeter=centerPerimeter;snapToPoint=1;" vertex="1" parent="1">
          <mxGeometry x="455" y="380" width="20" height="20" as="geometry" />
        </mxCell>
        <mxCell id="yaJ4Wb95gQdLDeX0nJdi-64" style="edgeStyle=orthogonalEdgeStyle;rounded=0;orthogonalLoop=1;jettySize=auto;html=1;exitX=0.75;exitY=1;exitDx=0;exitDy=0;entryX=0.28;entryY=0.46;entryDx=0;entryDy=0;entryPerimeter=0;endArrow=none;endFill=0;dashed=1;" edge="1" parent="1" source="yaJ4Wb95gQdLDeX0nJdi-20" target="yaJ4Wb95gQdLDeX0nJdi-63">
          <mxGeometry relative="1" as="geometry">
            <Array as="points">
              <mxPoint x="345" y="390" />
            </Array>
          </mxGeometry>
        </mxCell>
        <mxCell id="yaJ4Wb95gQdLDeX0nJdi-65" style="edgeStyle=orthogonalEdgeStyle;rounded=0;orthogonalLoop=1;jettySize=auto;html=1;exitX=0.75;exitY=1;exitDx=0;exitDy=0;entryX=0.64;entryY=0.7;entryDx=0;entryDy=0;entryPerimeter=0;endArrow=none;endFill=0;dashed=1;" edge="1" parent="1" source="yaJ4Wb95gQdLDeX0nJdi-18" target="yaJ4Wb95gQdLDeX0nJdi-63">
          <mxGeometry relative="1" as="geometry">
            <Array as="points">
              <mxPoint x="465" y="390" />
            </Array>
          </mxGeometry>
        </mxCell>
        <mxCell id="yaJ4Wb95gQdLDeX0nJdi-68" value="" style="edgeStyle=orthogonalEdgeStyle;rounded=0;orthogonalLoop=1;jettySize=auto;html=1;endArrow=none;endFill=0;dashed=1;" edge="1" parent="1" source="yaJ4Wb95gQdLDeX0nJdi-63" target="yaJ4Wb95gQdLDeX0nJdi-67">
          <mxGeometry relative="1" as="geometry">
            <mxPoint x="465" y="390" as="sourcePoint" />
            <mxPoint x="860" y="170" as="targetPoint" />
          </mxGeometry>
        </mxCell>
        <mxCell id="yaJ4Wb95gQdLDeX0nJdi-69" style="edgeStyle=orthogonalEdgeStyle;rounded=0;orthogonalLoop=1;jettySize=auto;html=1;entryX=1;entryY=0.5;entryDx=0;entryDy=0;dashed=1;endArrow=open;endFill=0;" edge="1" parent="1" source="yaJ4Wb95gQdLDeX0nJdi-67" target="yaJ4Wb95gQdLDeX0nJdi-60">
          <mxGeometry relative="1" as="geometry">
            <mxPoint x="1010" y="160" as="targetPoint" />
            <Array as="points">
              <mxPoint x="930" y="210" />
              <mxPoint x="930" y="90" />
            </Array>
          </mxGeometry>
        </mxCell>
        <mxCell id="yaJ4Wb95gQdLDeX0nJdi-67" value="" style="shape=waypoint;sketch=0;fillStyle=solid;size=6;pointerEvents=1;points=[];fillColor=none;resizable=0;rotatable=0;perimeter=centerPerimeter;snapToPoint=1;" vertex="1" parent="1">
          <mxGeometry x="850" y="200" width="20" height="20" as="geometry" />
        </mxCell>
      </root>
    </mxGraphModel>
  </diagram>
</mxfile>
